<?xml version="1.0" encoding="UTF-8"?>
<svg id="Layer_1" data-name="Layer 1" xmlns="http://www.w3.org/2000/svg" viewBox="0 0 583.2705 260.4797">
  <defs>
    <style>
      .cls-1 {
        fill: #1b1464;
      }
    </style>
  </defs>
  <g>
    <path class="cls-1" d="M293.9404,92.548h10.5293v37.3682h-10.5293v-13.9858h-29.9707v13.9858h-10.5293v-37.3682h10.5293v14.0942h29.9707v-14.0942Z"/>
    <path class="cls-1" d="M359.2519,94.5192c3.1143,1.5308,5.4814,3.7178,7.1016,6.561,1.6201,2.8442,2.4297,6.2285,2.4297,10.1519v.0542c0,3.8877-.8096,7.2544-2.4297,10.0977-1.6201,2.8447-3.9873,5.0317-7.1016,6.561-3.1143,1.5308-6.8125,2.2954-11.0967,2.2954h-16.7939c-4.2842,0-7.9746-.7646-11.0703-2.2954-3.0957-1.5293-5.4629-3.7163-7.1006-6.561-1.6387-2.8433-2.457-6.21-2.457-10.0977v-.0542c0-3.9233.8184-7.3076,2.457-10.1519,1.6377-2.8433,4.0049-5.0303,7.1006-6.561,3.0957-1.5298,6.7861-2.2949,11.0703-2.2949h16.7939c4.2842,0,7.9824.7651,11.0967,2.2949ZM353.9062,119.6564c1.5303-.7915,2.6816-1.8984,3.4561-3.3213.7734-1.4219,1.1611-3.105,1.1611-5.0488v-.0542c0-2.0156-.3877-3.7261-1.1611-5.1299-.7744-1.4038-1.9258-2.502-3.4561-3.2939-1.5303-.7915-3.4473-1.188-5.751-1.188h-16.7939c-2.2676,0-4.1768.3965-5.7236,1.188-1.5488.792-2.7002,1.8901-3.4561,3.2939s-1.1338,3.1143-1.1338,5.1299v.0542c0,1.9438.3779,3.627,1.1338,5.0488.7559,1.4229,1.9072,2.5298,3.4561,3.3213,1.5469.792,3.4561,1.188,5.7236,1.188h16.7939c2.3037,0,4.2207-.396,5.751-1.188Z"/>
    <path class="cls-1" d="M375.1006,92.548h9.666l31.752,23.7603-.7559.1621v-23.9224h10.3682v37.3682h-9.666l-31.752-23.7061.7559-.1621v23.8682h-10.3682v-37.3682Z"/>
    <path class="cls-1" d="M479.1592,101.5661h-34.2363v5.292h30.4561v8.8022h-30.4561v5.2378h34.2363v9.0181h-44.4961v-37.3682h44.4961v9.0181Z"/>
    <path class="cls-1" d="M520.9287,101.674c-1.1348-.3955-2.6387-.5938-4.5098-.5938h-17.0098c-1.5117,0-2.6641.1982-3.457.5938-.791.397-1.1875.9907-1.1875,1.7822,0,.4683.127.8638.3789,1.188.252.3237.6836.5854,1.2949.7832.6133.1982,1.4766.3691,2.5918.5127l21.709,1.2422c2.8789.3237,5.1836,1.0444,6.9121,2.1597,1.7285,1.1167,2.9512,2.4937,3.6719,4.1313.7188,1.6387,1.0605,3.4111,1.0254,5.3188,0,2.2324-.5215,4.2036-1.5664,5.9131-1.043,1.7104-2.6543,3.0601-4.832,4.0498-2.1777.9907-4.834,1.4854-7.9648,1.4854h-17.3887c-4.4277,0-8.0449-.666-10.8535-1.998-2.8086-1.3315-4.7891-3.2754-5.9404-5.832l9.126-5.1304c.791,1.585,1.7832,2.6733,2.9707,3.2671,1.1875.5942,2.7891.8911,4.8066.8911h17.3867c1.5117,0,2.6543-.2246,3.4297-.6748.7734-.4497,1.1602-1.125,1.1602-2.0254,0-.5752-.1445-1.0527-.4316-1.4307-.2891-.3779-.7207-.6753-1.2949-.8911-.5781-.2158-1.334-.3779-2.2695-.4858l-22.4102-1.458c-2.6641-.2881-4.832-.9453-6.5059-1.9712s-2.8711-2.2856-3.5918-3.7798c-.7207-1.4937-1.0801-3.1592-1.0801-4.9951,0-3.5278,1.2324-6.3267,3.6992-8.397,2.4648-2.0698,6.1465-3.105,11.043-3.105h16.7402c3.8164,0,7.002.522,9.5586,1.5659,2.5547,1.0444,4.4629,2.5381,5.7227,4.4819l-7.9902,5.562c-.8301-1.0435-1.8105-1.7632-2.9434-2.1602Z"/>
    <path class="cls-1" d="M583.2705,102.2682h-18.3594v27.6479h-10.5303v-27.6479h-18.3066v-9.7202h47.1963v9.7202Z"/>
  </g>
  <g>
    <path class="cls-1" d="M295.7217,155.5217c3.0596,1.4766,5.373,3.6094,6.9395,6.3994s2.3486,6.1475,2.3486,10.0713v.0537c0,3.9238-.7822,7.2812-2.3486,10.0713s-3.8799,4.9141-6.9395,6.3721-6.7314,2.1865-11.0156,2.1865h-30.9424v-37.3682h30.9424c4.2842,0,7.9561.7383,11.0156,2.2139ZM291.2939,181.631c1.7637-.8457,3.0869-2.0791,3.9688-3.6992s1.3232-3.582,1.3232-5.8857v-.0537c0-2.3398-.4414-4.3203-1.3232-5.9404s-2.2051-2.8525-3.9688-3.6992c-1.7637-.8447-3.96-1.2686-6.5879-1.2686h-22.3564v21.8154h22.3564c2.6279,0,4.8242-.4219,6.5879-1.2686Z"/>
    <path class="cls-1" d="M317.2139,171.9377h26.46c2.6631,0,4.625-.4492,5.8857-1.3496,1.2598-.8994,1.8896-2.2861,1.8896-4.1582v-.0537c0-1.8721-.6396-3.2578-1.917-4.1582-1.2783-.8994-3.2314-1.3496-5.8584-1.3496h-25.4883l2.1602-2.2686v32.0762h-8.3701v-37.3682h31.6982c5.543,0,9.6113,1.1709,12.2041,3.5098,2.5918,2.3408,3.8877,5.5273,3.8877,9.5586v.0537c0,2.5566-.5498,4.7793-1.6475,6.6689-1.0986,1.8906-2.8438,3.3672-5.2373,4.4277-2.3945,1.0625-5.4639,1.5938-9.207,1.5938h-26.46v-7.1826ZM340.6494,174.4221l8.8018-.0537,11.3398,16.3076h-9.5039l-10.6377-16.2539Z"/>
    <path class="cls-1" d="M411.2812,190.676l-4.6982-7.5596h-28.5117l-4.6436,7.5596h-9.2881l23.8672-37.3682h8.5869l23.9756,37.3682h-9.2881ZM382.4453,176.0959h19.7637l-9.8818-15.3359-9.8818,15.3359Z"/>
    <path class="cls-1" d="M426.4551,153.3078h8.5859v37.3682h-8.5859v-37.3682Z"/>
    <path class="cls-1" d="M444.2207,153.3078h7.9922l34.3438,26.3525-.7021.1621v-26.5146h8.4785v37.3682h-7.9922l-34.3438-26.3516.7012-.1084v26.46h-8.4775v-37.3682Z"/>
  </g>
  <path class="cls-1" d="M220.6297,116.7405c-.0088-.7587.0239-1.5119.1167-2.2634v-.0298c-.0399-.4838-.038-.9693.0024-1.4545l.127-75.6802C181.6993,30.8222,147.5664,20.218,113.4457,0l-25.8155,12.7321C60.2283,26.2464,30.7176,33.2916.6353,37.3513c-1.1335,15.4177-.4755,29.748-.1196,44.5615l.6857,28.5388c2.2402,24.9604,5.9854,49.1685,17.4708,71.7859,19.1415,37.6938,56.0551,62.6655,95.2139,78.2422,27.5095-11.5178,54.9553-28.9138,73.9229-51.5936,10.3457-11.9321,17.3647-25.4733,22.668-40.441,5.4263-16.09,7.7161-32.1115,9.8947-49.1014-.0054-.6842.0997-1.3661.2323-2.0462.0018-.1857.0103-.3713.0259-.5569ZM215.1083,76.8807l-.5525,40.688c-1.9709,21.2302-5.5656,41.4908-14.1384,60.8558-14.9921,33.8657-47.2021,57.0443-80.2209,73.2845-4.5494,2.2376-7.6729,2.9172-12.0718.8996-40.6143-18.6277-76.5536-45.0384-91.2403-88.8333-5.5687-17.3363-9.3707-34.8618-9.514-53.4099l-.5261-68.0976c30.1351-5.02,58.4349-13.0661,85.6397-25.6592l20.9707-10.8328,14.3875,8.2769c27.3449,13.7874,56.2995,22.197,87.2368,28.1752.6824,11.4465.1892,22.8684.0293,34.6527Z"/>
  <path class="cls-1" d="M175.8385,153.9685l12.1242,1.5671c-23.8856,5.5612-43.4135-4.4183-64.6269-16.0245-25.7392-14.0824-46.6551-21.659-76.6219-12.9189,1.0258-2.1814,1.7153-3.7303,2.1878-5.5292l-.099-58.1453,37.9973.0153.1136,49.9989c18.5382-1.1842,33.8098,6.3736,50.8131,13.789l.1594-63.7909,37.949-.0168.0035,91.0552Z"/>
  <path class="cls-1" d="M137.9024,193.9313l-.1726-19.7854c-19.0455-4.1387-32.6961-15.3313-50.7757-22.9411l-.1713,42.7784-29.8446-.1554c-3.785-.0197-7.3222-3.5526-8.1026-6.9098l-.0115-50.7579-9.0902-.6525c22.2104-7.1011,46.8709.6518,67.7557,11.7701,26.5888,14.1549,41.7753,21.8183,74.9899,17.4538l-6.4323,3.7572-.5367,19.3002c-.103,3.7028-6.4223,6.1554-9.4466,6.1541l-28.1614-.0118Z"/>
</svg>