<?xml version="1.0" encoding="UTF-8"?>
<svg id="Layer_1" data-name="Layer 1" xmlns="http://www.w3.org/2000/svg" viewBox="0 0 252 280">
  <defs>
    <style>
      .cls-1 {
        fill: #fff;
      }

      .cls-2 {
        fill: #1b1464;
      }
    </style>
  </defs>
  <rect class="cls-2" width="252" height="280"/>
  <path class="cls-1" d="M232.7947,128.8134c-.0088-.7587.0239-1.5119.1167-2.2634v-.0298c-.0399-.4838-.038-.9693.0024-1.4545l.127-75.6802c-39.1765-6.4904-73.3094-17.0947-107.4301-37.3126l-25.8155,12.7321c-27.4019,13.5143-56.9127,20.5595-86.9949,24.6192-1.1335,15.4177-.4755,29.748-.1196,44.5615l.6857,28.5388c2.2402,24.9604,5.9854,49.1685,17.4708,71.7859,19.1415,37.6938,56.0551,62.6655,95.2139,78.2422,27.5095-11.5178,54.9553-28.9138,73.9229-51.5936,10.3457-11.9321,17.3647-25.4733,22.668-40.441,5.4263-16.09,7.7161-32.1115,9.8947-49.1014-.0054-.6842.0997-1.3661.2323-2.0462.0018-.1857.0103-.3713.0259-.5569ZM227.2732,88.9535l-.5525,40.688c-1.9709,21.2302-5.5656,41.4908-14.1384,60.8558-14.9921,33.8657-47.2021,57.0443-80.2209,73.2845-4.5494,2.2376-7.6729,2.9172-12.0718.8996-40.6143-18.6277-76.5536-45.0384-91.2403-88.8333-5.5687-17.3363-9.3707-34.8618-9.514-53.4099l-.5261-68.0976c30.1351-5.02,58.4349-13.0661,85.6397-25.6592l20.9707-10.8328,14.3875,8.2769c27.3449,13.7874,56.2995,22.197,87.2368,28.1752.6824,11.4465.1892,22.8684.0293,34.6527Z"/>
  <path class="cls-1" d="M188.0035,166.0413l12.1242,1.5671c-23.8856,5.5612-43.4135-4.4183-64.6269-16.0245-25.7392-14.0824-46.6551-21.659-76.6219-12.9189,1.0258-2.1814,1.7153-3.7303,2.1878-5.5292l-.099-58.1453,37.9973.0153.1136,49.9989c18.5382-1.1842,33.8098,6.3736,50.8131,13.789l.1594-63.7909,37.949-.0168.0035,91.0552Z"/>
  <path class="cls-1" d="M150.0674,206.0041l-.1726-19.7854c-19.0455-4.1387-32.6961-15.3313-50.7757-22.9411l-.1713,42.7784-29.8446-.1554c-3.785-.0197-7.3222-3.5526-8.1026-6.9098l-.0115-50.7579-9.0902-.6525c22.2104-7.1011,46.8709.6518,67.7557,11.7701,26.5888,14.1549,41.7753,21.8183,74.9899,17.4538l-6.4323,3.7572-.5367,19.3002c-.103,3.7028-6.4223,6.1554-9.4466,6.1541l-28.1614-.0118Z"/>
</svg>