<?xml version="1.0" encoding="UTF-8"?>
<svg id="Layer_1" data-name="Layer 1" xmlns="http://www.w3.org/2000/svg" viewBox="0 0 329.8301 98.4517">
  <defs>
    <style>
      .cls-1 {
        fill: #1b1464;
      }
    </style>
  </defs>
  <g>
    <path class="cls-1" d="M40.5.3237h10.5303v37.3682h-10.5303v-13.9858H10.5298v13.9858H0V.3237h10.5298v14.0942h29.9702V.3237Z"/>
    <path class="cls-1" d="M105.8125,2.2949c3.1133,1.5308,5.4805,3.7178,7.1006,6.561,1.6201,2.8442,2.4307,6.2285,2.4307,10.1519v.0542c0,3.8877-.8105,7.2544-2.4307,10.0977-1.6201,2.8447-3.9873,5.0317-7.1006,6.561-3.1143,1.5308-6.8135,2.2954-11.0967,2.2954h-16.7939c-4.2852,0-7.9746-.7646-11.0703-2.2954-3.0967-1.5293-5.4639-3.7163-7.1016-6.561-1.6377-2.8433-2.457-6.21-2.457-10.0977v-.0542c0-3.9233.8193-7.3076,2.457-10.1519,1.6377-2.8433,4.0049-5.0303,7.1016-6.561,3.0957-1.5298,6.7852-2.2949,11.0703-2.2949h16.7939c4.2832,0,7.9824.7651,11.0967,2.2949ZM100.4668,27.4321c1.5293-.7915,2.6807-1.8984,3.4561-3.3213.7734-1.4219,1.1602-3.105,1.1602-5.0488v-.0542c0-2.0156-.3867-3.7261-1.1602-5.1299-.7754-1.4038-1.9268-2.502-3.4561-3.2939-1.5312-.7915-3.4482-1.188-5.751-1.188h-16.7939c-2.2686,0-4.1768.3965-5.7246,1.188-1.5479.792-2.7002,1.8901-3.4561,3.2939s-1.1338,3.1143-1.1338,5.1299v.0542c0,1.9438.3779,3.627,1.1338,5.0488.7559,1.4229,1.9082,2.5298,3.4561,3.3213,1.5479.792,3.4561,1.188,5.7246,1.188h16.7939c2.3027,0,4.2197-.396,5.751-1.188Z"/>
    <path class="cls-1" d="M121.6611.3237h9.666l31.752,23.7603-.7559.1621V.3237h10.3672v37.3682h-9.666l-31.752-23.7061.7559-.1621v23.8682h-10.3672V.3237Z"/>
    <path class="cls-1" d="M225.7188,9.3418h-34.2363v5.292h30.4561v8.8022h-30.4561v5.2378h34.2363v9.0181h-44.4961V.3237h44.4961v9.0181Z"/>
    <path class="cls-1" d="M267.4883,9.4497c-1.1348-.3955-2.6387-.5938-4.5098-.5938h-17.0098c-1.5117,0-2.6641.1982-3.457.5938-.791.397-1.1875.9907-1.1875,1.7822,0,.4683.127.8638.3789,1.188.252.3237.6836.5854,1.2949.7832.6133.1982,1.4766.3691,2.5918.5127l21.709,1.2422c2.8789.3237,5.1836,1.0444,6.9121,2.1597,1.7285,1.1167,2.9512,2.4937,3.6719,4.1313.7188,1.6387,1.0605,3.4111,1.0254,5.3188,0,2.2324-.5215,4.2036-1.5664,5.9131-1.043,1.7104-2.6543,3.0601-4.832,4.0498-2.1777.9907-4.834,1.4854-7.9648,1.4854h-17.3887c-4.4277,0-8.0449-.666-10.8535-1.998-2.8086-1.3315-4.7891-3.2754-5.9395-5.832l9.125-5.1304c.791,1.585,1.7832,2.6733,2.9707,3.2671,1.1875.5942,2.7891.8911,4.8066.8911h17.3867c1.5117,0,2.6543-.2246,3.4297-.6748.7734-.4497,1.1602-1.125,1.1602-2.0254,0-.5752-.1445-1.0527-.4316-1.4307-.2891-.3779-.7207-.6753-1.2949-.8911-.5781-.2158-1.334-.3779-2.2695-.4858l-22.4102-1.458c-2.6641-.2881-4.832-.9453-6.5059-1.9712s-2.8711-2.2856-3.5918-3.7798c-.7207-1.4937-1.0801-3.1592-1.0801-4.9951,0-3.5278,1.2324-6.3267,3.6992-8.397,2.4648-2.0698,6.1465-3.105,11.043-3.105h16.7402c3.8164,0,7.002.522,9.5586,1.5659,2.5547,1.0444,4.4629,2.5381,5.7227,4.4819l-7.9902,5.562c-.8301-1.0435-1.8105-1.7632-2.9434-2.1602Z"/>
    <path class="cls-1" d="M329.8301,10.0439h-18.3594v27.6479h-10.5303V10.0439h-18.3066V.3237h47.1963v9.7202Z"/>
  </g>
  <g>
    <path class="cls-1" d="M42.2822,63.2974c3.0596,1.4766,5.373,3.6094,6.9385,6.3994,1.5664,2.79,2.3496,6.1475,2.3496,10.0713v.0537c0,3.9238-.7832,7.2812-2.3496,10.0713-1.5654,2.79-3.8789,4.9141-6.9385,6.3721-3.0605,1.458-6.7324,2.1865-11.0156,2.1865H.3242v-37.3682h30.9424c4.2832,0,7.9551.7383,11.0156,2.2139ZM37.8545,89.4067c1.7627-.8457,3.0859-2.0791,3.9688-3.6992.8818-1.6201,1.3232-3.582,1.3232-5.8857v-.0537c0-2.3398-.4414-4.3203-1.3232-5.9404-.8828-1.6201-2.2061-2.8525-3.9688-3.6992-1.7646-.8447-3.9609-1.2686-6.5879-1.2686H8.9102v21.8154h22.3564c2.627,0,4.8232-.4219,6.5879-1.2686Z"/>
    <path class="cls-1" d="M63.7734,79.7134h26.46c2.6641,0,4.626-.4492,5.8857-1.3496,1.2598-.8994,1.8906-2.2861,1.8906-4.1582v-.0537c0-1.8721-.6396-3.2578-1.917-4.1582-1.2783-.8994-3.2314-1.3496-5.8594-1.3496h-25.4883l2.1602-2.2686v32.0762h-8.3701v-37.3682h31.6982c5.5439,0,9.6123,1.1709,12.2041,3.5098,2.5918,2.3408,3.8877,5.5273,3.8877,9.5586v.0537c0,2.5566-.5488,4.7793-1.6465,6.6689-1.0986,1.8906-2.8447,3.3672-5.2383,4.4277-2.3945,1.0625-5.4629,1.5938-9.207,1.5938h-26.46v-7.1826ZM87.21,82.1978l8.8018-.0537,11.3398,16.3076h-9.5039l-10.6377-16.2539Z"/>
    <path class="cls-1" d="M157.8418,98.4517l-4.6982-7.5596h-28.5117l-4.6445,7.5596h-9.2881l23.8682-37.3682h8.5859l23.9756,37.3682h-9.2871ZM129.0049,83.8716h19.7646l-9.8818-15.3359-9.8828,15.3359Z"/>
    <path class="cls-1" d="M173.0146,61.0835h8.5859v37.3682h-8.5859v-37.3682Z"/>
    <path class="cls-1" d="M190.7803,61.0835h7.9922l34.3438,26.3525-.7012.1621v-26.5146h8.4775v37.3682h-7.9922l-34.3438-26.3516.7021-.1084v26.46h-8.4785v-37.3682Z"/>
  </g>
</svg>